<?xml version="1.0" encoding="utf-8"?>
<!-- Generator: Adobe Illustrator 19.2.0, SVG Export Plug-In . SVG Version: 6.00 Build 0)  -->
<svg version="1.1" xmlns="http://www.w3.org/2000/svg" xmlns:xlink="http://www.w3.org/1999/xlink" x="0px" y="0px" width="85px"
	 height="85px" viewBox="0 0 85 85" enable-background="new 0 0 85 85" xml:space="preserve">
<g id="Layer_1">
	<g display="none">
		<rect x="-1862.25" y="-422.56" display="inline" fill="#D1D3D4" width="2945.022" height="577.471"/>
	</g>
	<path fill="#FFFFFF" d="M47.419,53.478l11.488-0.339v9.96c0,1.412,0.017,1.639-2.314,2.389c-3.275,0.865-6.971,1.035-10.353,0.749
		C34.768,65.28,26.025,56.219,23.955,44.913C21.993,34.187,27.047,24.044,35.6,19.859c4.177-2.045,9.186-3.005,14.617-1.271
		c3.403,1.093,6.495,3.055,9.19,5.767l-1.875,3.407l3.527-1.002l5.444-5.551c-9.24-7.646-25.087-8.652-35.589-3.341
		c-9.132,4.616-15.772,13.785-16.1,24.027c-0.339,10.788,5.924,19.312,12.283,23.601c10.498,7.079,28.697,5.502,39.659-0.033
		l-0.008-1.023h0.008V53.139l2.546-2.993H53.335L47.419,53.478z"/>
</g>
<g id="Layer_2">
</g>
</svg>
