<?xml version="1.0" encoding="utf-8"?>
<!-- Generator: Adobe Illustrator 19.2.0, SVG Export Plug-In . SVG Version: 6.00 Build 0)  -->
<svg version="1.1" xmlns="http://www.w3.org/2000/svg" xmlns:xlink="http://www.w3.org/1999/xlink" x="0px" y="0px" width="85px"
	 height="85px" viewBox="0 0 85 85" enable-background="new 0 0 85 85" xml:space="preserve">
<g id="Layer_1">
	<g display="none">
		<rect x="-1518.5" y="-422.293" display="inline" width="2945.022" height="577.471"/>
	</g>
	<g>
		<path d="M40.614,43.714c-7.249-6.135-15.939-8.801-25.468-9.023v10.922c7.311,0.492,13.978,2.329,19.386,7.235
			c5.439,4.933,8.336,11.064,8.446,18.437h10.749C53.563,60.039,49.078,50.879,40.614,43.714z"/>
		<path fill="#FFFFFF" d="M22.181,57.289c-3.97,0.013-7.191,3.172-7.178,7.049c0.018,3.846,3.305,7.045,7.235,7.027
			c3.935-0.018,7.191-3.234,7.178-7.085C29.403,60.408,26.165,57.28,22.181,57.289z"/>
		<path fill="#FFFFFF" d="M52.786,28.844c-10.713-9.152-23.481-13.322-37.681-13.646v11.002
			c12.714,0.346,23.742,4.622,32.836,13.268c9.13,8.673,13.677,19.364,14.005,31.807h10.478
			C72.186,54.233,65.811,39.97,52.786,28.844z"/>
	</g>
</g>
<g id="Layer_2">
</g>
</svg>
