<?xml version="1.0" encoding="utf-8"?>
<!-- Generator: Adobe Illustrator 19.2.0, SVG Export Plug-In . SVG Version: 6.00 Build 0)  -->
<svg version="1.1" xmlns="http://www.w3.org/2000/svg" xmlns:xlink="http://www.w3.org/1999/xlink" x="0px" y="0px" width="85px"
	 height="85px" viewBox="0 0 85 85" enable-background="new 0 0 85 85" xml:space="preserve">
<g id="Layer_1">
	<g display="none">
		<rect x="-2203.88" y="-422.56" display="inline" width="2945.022" height="577.471"/>
	</g>
	<path d="M40.942,19.655c-17.195,0-31.178,9.377-31.178,20.908c0,6.635,4.593,12.77,12.42,16.686
		c-1.649,3.264-4.909,5.75-4.939,5.781l-4.559,3.458l5.971,0.587c0.79,0.065,1.524,0.099,2.266,0.099h0.004
		c7.641,0,13.051-3.657,15.701-5.932c1.468,0.138,2.914,0.203,4.313,0.203c17.182,0,31.178-9.372,31.178-20.882
		C72.12,29.031,58.124,19.655,40.942,19.655z"/>
</g>
<g id="Layer_2">
</g>
</svg>
