<?xml version="1.0" encoding="utf-8"?>
<!-- Generator: Adobe Illustrator 19.2.0, SVG Export Plug-In . SVG Version: 6.00 Build 0)  -->
<svg version="1.1" xmlns="http://www.w3.org/2000/svg" xmlns:xlink="http://www.w3.org/1999/xlink" x="0px" y="0px" width="85px"
	 height="85px" viewBox="0 0 85 85" enable-background="new 0 0 85 85" xml:space="preserve">
<g id="Layer_1">
	<g display="none">
		<rect x="-1947.667" y="-422.293" display="inline" fill="#D1D3D4" width="2945.022" height="577.471"/>
	</g>
	<path fill="#FFFFFF" d="M70.462,21.393c-2.45,1.448-5.156,2.506-8.043,3.074c-2.305-2.459-5.598-4.001-9.236-4.001
		c-6.991,0-12.659,5.668-12.659,12.659c0,0.992,0.107,1.961,0.326,2.888c-10.521-0.531-19.85-5.566-26.096-13.227
		c-1.09,1.868-1.714,4.043-1.714,6.367c0,4.392,2.236,8.262,5.636,10.535c-2.077-0.065-4.029-0.638-5.738-1.584
		c0,0.051,0,0.103,0,0.158c0,6.129,4.364,11.248,10.158,12.412c-1.062,0.293-2.18,0.442-3.335,0.442
		c-0.82,0-1.611-0.074-2.385-0.224c1.612,5.025,6.288,8.686,11.825,8.789c-4.331,3.395-9.79,5.421-15.724,5.421
		c-1.02,0-2.026-0.061-3.018-0.177c5.603,3.591,12.259,5.687,19.408,5.687c23.283,0,36.016-19.287,36.016-36.021
		c0-0.545-0.009-1.09-0.037-1.635c2.473-1.784,4.625-4.015,6.316-6.553c-2.268,1.006-4.709,1.686-7.27,1.993
		C67.504,26.833,69.511,24.35,70.462,21.393z"/>
</g>
<g id="Layer_2">
</g>
</svg>
