<?xml version="1.0" encoding="utf-8"?>
<!-- Generator: Adobe Illustrator 19.2.0, SVG Export Plug-In . SVG Version: 6.00 Build 0)  -->
<svg version="1.1" xmlns="http://www.w3.org/2000/svg" xmlns:xlink="http://www.w3.org/1999/xlink" x="0px" y="0px" width="85px"
	 height="85px" viewBox="0 0 85 85" enable-background="new 0 0 85 85" xml:space="preserve">
<g id="Layer_1">
	<g display="none">
		<rect x="-1346.5" y="-422.56" display="inline" width="2945.022" height="577.471"/>
	</g>
	<path  d="M43.265,13.747c-0.011,0-0.022,0-0.032,0.003c-0.011-0.003-0.022-0.003-0.032-0.003
		c-10.065,0-18.225,8.159-18.225,18.226c0,4.914,1.951,9.377,5.117,12.654c1.335,1.817,3.995,9.145,4.145,12.674
		c7.219,0,8.675,0,8.969,0c0.01,0,0.027,0,0.05,0c0.293,0,1.749,0,8.968,0c0.151-3.529,2.81-10.858,4.146-12.674
		c3.165-3.278,5.117-7.74,5.117-12.654C61.49,21.906,53.33,13.747,43.265,13.747z M35.759,62.061H50.9v-2.949H35.759V62.061z
		 M36.278,66.427h13.96v-2.952h-13.96V66.427z M37.068,70.909h3.131v1.926h6.213v-1.926h3.083V67.96H37.068V70.909z"/>
</g>
<g id="Layer_2">
</g>
</svg>
