<?xml version="1.0" encoding="utf-8"?>
<!-- Generator: Adobe Illustrator 19.2.0, SVG Export Plug-In . SVG Version: 6.00 Build 0)  -->
<svg version="1.1" xmlns="http://www.w3.org/2000/svg" xmlns:xlink="http://www.w3.org/1999/xlink" x="0px" y="0px" width="85px"
	 height="85px" viewBox="0 0 85 85" enable-background="new 0 0 85 85" xml:space="preserve">
<g id="Layer_1">
	<g display="none">
		<rect x="-1776.583" y="-422.56" display="inline" fill="#D1D3D4" width="2945.022" height="577.471"/>
	</g>
	<path fill="#FFFFFF" d="M42.608,12.4c-16.937,0-30.667,13.73-30.667,30.667c0,16.936,13.729,30.667,30.667,30.667
		c16.937,0,30.667-13.731,30.667-30.667C73.274,26.13,59.544,12.4,42.608,12.4z M42.608,62.909
		c-10.959,0-19.843-8.885-19.843-19.843c0-10.96,8.885-19.843,19.843-19.843c10.959,0,19.844,8.884,19.844,19.843
		C62.451,54.025,53.567,62.909,42.608,62.909z M53.496,36.556l-4.409-4.403l-6.499,6.498l-6.483-6.481l-4.402,4.405l6.481,6.483
		l-6.464,6.465l4.406,4.404l6.462-6.465l6.52,6.518l4.403-4.406l-6.517-6.516L53.496,36.556z"/>
</g>
<g id="Layer_2">
</g>
</svg>
