<?xml version="1.0" encoding="utf-8"?>
<!-- Generator: Adobe Illustrator 19.2.0, SVG Export Plug-In . SVG Version: 6.00 Build 0)  -->
<svg version="1.1" xmlns="http://www.w3.org/2000/svg" xmlns:xlink="http://www.w3.org/1999/xlink" x="0px" y="0px" width="85px"
	 height="85px" viewBox="0 0 85 85" enable-background="new 0 0 85 85" xml:space="preserve">
<g id="Layer_1">
	<g display="none">
		<rect x="-1260.63" y="-422.56" display="inline" fill="#D1D3D4" width="2945.022" height="577.471"/>
	</g>
	<path fill-rule="evenodd" clip-rule="evenodd" fill="#FFFFFF" d="M43.193,19.276c5.602,0,10.224,4.237,10.917,9.723h6.598
		c-0.776-9.291-8.384-16.588-17.659-16.588c-9.275,0-16.881,7.296-17.66,16.588h6.886C32.969,23.513,37.59,19.276,43.193,19.276z
		 M59.454,33.046H25.638c-4.086,0-7.401,3.315-7.401,7.401v23.807c0,4.086,3.315,7.4,7.401,7.4h33.816
		c4.087,0,7.401-3.313,7.401-7.4V40.447C66.856,36.361,63.542,33.046,59.454,33.046z M45.693,52.981v5.377
		c0,1.817-1.473,3.287-3.29,3.287c-1.816,0-3.288-1.47-3.288-3.287v-5.288c-0.889-0.854-1.446-2.052-1.446-3.381
		c0-2.589,2.099-4.688,4.688-4.688c2.588,0,4.689,2.099,4.689,4.688C47.047,50.972,46.53,52.136,45.693,52.981z"/>
</g>
<g id="Layer_2">
</g>
</svg>
