<?xml version="1.0" encoding="utf-8"?>
<!-- Generator: Adobe Illustrator 19.2.0, SVG Export Plug-In . SVG Version: 6.00 Build 0)  -->
<svg version="1.1" xmlns="http://www.w3.org/2000/svg" xmlns:xlink="http://www.w3.org/1999/xlink" x="0px" y="0px" width="85px"
	 height="85px" viewBox="0 0 85 85" enable-background="new 0 0 85 85" xml:space="preserve">
<g id="Layer_1">
	<g display="none">
		<rect x="-1432.209" y="-422.56" display="inline" fill="#D1D3D4" width="2945.022" height="577.471"/>
	</g>
	<path fill="#FFFFFF" d="M68.457,46.984l-2.383-5.76c0.036-0.543,0.063-1.09,0.063-1.644c0-13.584-10.798-24.595-24.118-24.595
		c-13.32,0-24.119,11.012-24.119,24.595c0,0.556,0.028,1.104,0.066,1.65l-2.38,5.753H17.8L22.533,62.2h1.103
		c1.003,3.353,4.033,5.791,7.619,5.791c0.887,0,1.736-0.155,2.533-0.431l-2.238-15.972c-0.1-0.004-0.197-0.016-0.295-0.016
		c-3.605,0-6.648,2.467-7.633,5.848l-2.398-10.436l2.082-5.427h-0.005c-0.038-0.518-0.064-1.04-0.064-1.568
		c0-10.949,8.41-19.825,18.783-19.825s18.782,8.876,18.782,19.825c0,0.528-0.026,1.05-0.064,1.568l2.081,5.427h0.001L60.42,57.421
		c-0.985-3.382-4.028-5.848-7.633-5.848c-0.1,0-0.197,0.011-0.295,0.016L50.254,67.56c0.797,0.276,1.647,0.431,2.533,0.431
		c3.585,0,6.616-2.438,7.619-5.791h1.103l4.734-15.216H68.457z"/>
</g>
<g id="Layer_2">
</g>
</svg>
