<?xml version="1.0" encoding="utf-8"?>
<!-- Generator: Adobe Illustrator 19.2.0, SVG Export Plug-In . SVG Version: 6.00 Build 0)  -->
<svg version="1.1" xmlns="http://www.w3.org/2000/svg" xmlns:xlink="http://www.w3.org/1999/xlink" x="0px" y="0px" width="85px"
	 height="85px" viewBox="0 0 85 85" enable-background="new 0 0 85 85" xml:space="preserve">
<g id="Layer_1">
	<g display="none">
		<rect x="-2118.88" y="-422.56" display="inline" width="2945.022" height="577.471"/>
	</g>
	<g>
		<path d="M58.543,35.145c-3.167,0-8.073-0.308-11.741,5.047v-3.886H34.942v34.527h11.859V48.52
			c0.506-1.722,2.122-4.308,7.324-4.308c1.514,0,5.232,1.814,5.374,7.208h-0.026v1.26c-0.003,0.006,0,0.012-0.003,0.018
			c0,0.004,0.003,0.007,0.003,0.009v18.126h11.857V52.807C71.343,52.651,72.629,36.614,58.543,35.145z"/>
		<ellipse fill="#FFFFFF" cx="22.098" cy="25.355" rx="6.726" ry="6.35"/>
		<rect x="15.996" y="36.306" fill="#FFFFFF" width="11.856" height="34.527"/>
	</g>
</g>
<g id="Layer_2">
</g>
</svg>
