<?xml version="1.0" encoding="utf-8"?>
<!-- Generator: Adobe Illustrator 19.2.0, SVG Export Plug-In . SVG Version: 6.00 Build 0)  -->
<svg version="1.1" xmlns="http://www.w3.org/2000/svg" xmlns:xlink="http://www.w3.org/1999/xlink" x="0px" y="0px" width="85px"
	 height="85px" viewBox="0 0 85 85" enable-background="new 0 0 85 85" xml:space="preserve">
<g id="Layer_1">
	<g display="none">
		<rect x="-1690.5" y="-422.56" display="inline" fill="#D1D3D4" width="2945.022" height="577.471"/>
	</g>
	<path fill="#FFFFFF" d="M49.116,20.66l13.429,13.43c1.721,1.721,4.512,1.721,6.235-0.001c1.721-1.721,1.72-4.514,0-6.234
		L55.35,14.426c-1.722-1.722-4.513-1.722-6.234-0.001C47.394,16.145,47.394,18.939,49.116,20.66z M48.132,48.503l-13.43-13.429
		c-1.721-1.722-4.514-1.721-6.236,0.001c-1.72,1.72-1.721,4.513,0,6.234l13.429,13.43c1.721,1.721,4.515,1.72,6.236-0.002
		C49.853,53.018,49.853,50.224,48.132,48.503z M49.865,23.178L35.831,33.265l14.108,14.111L60.027,33.34L49.865,23.178z
		 M34.115,49.075l-1.774-1.774L17.067,63.258l-0.258,3.123l-0.02,0.02l0.018-0.002l-0.003,0.017l0.02-0.019l3.125-0.257
		l15.956-15.277L34.13,49.09L34.115,49.075z"/>
</g>
<g id="Layer_2">
</g>
</svg>
